<mxfile host="app.diagrams.net" agent="Mozilla/5.0 (Windows NT 10.0; Win64; x64) AppleWebKit/537.36 (KHTML, like Gecko) Chrome/131.0.0.0 Safari/537.36" version="25.0.3">
  <diagram id="Ht1M8jgEwFfnCIfOTk4-" name="Page-1">
    <mxGraphModel dx="3088" dy="1907" grid="1" gridSize="10" guides="1" tooltips="1" connect="1" arrows="1" fold="1" page="1" pageScale="1" pageWidth="1654" pageHeight="1169" background="none" math="0" shadow="0">
      <root>
        <mxCell id="0" />
        <mxCell id="1" parent="0" />
        <mxCell id="IzoFUXeWL32RikOkkDxz-32" value="Extension" style="outlineConnect=0;gradientColor=none;html=1;whiteSpace=wrap;fontSize=12;fontStyle=4;strokeColor=#879196;fillColor=none;verticalAlign=top;align=center;fontColor=#879196;dashed=1;spacingTop=3;" parent="1" vertex="1">
          <mxGeometry x="470" y="-475" width="330" height="260" as="geometry" />
        </mxCell>
        <mxCell id="IzoFUXeWL32RikOkkDxz-19" style="edgeStyle=orthogonalEdgeStyle;rounded=0;orthogonalLoop=1;jettySize=auto;html=1;exitX=0;exitY=0.75;exitDx=0;exitDy=0;entryX=0.5;entryY=0;entryDx=0;entryDy=0;" parent="1" edge="1">
          <mxGeometry relative="1" as="geometry">
            <mxPoint x="60" y="-282.5" as="sourcePoint" />
            <mxPoint x="299.94" y="-1093.94" as="targetPoint" />
            <Array as="points">
              <mxPoint x="60" y="-280" />
              <mxPoint x="-16" y="-280" />
              <mxPoint x="-16" y="-1140" />
              <mxPoint x="300" y="-1140" />
            </Array>
          </mxGeometry>
        </mxCell>
        <mxCell id="UEzPUAAOIrF-is8g5C7q-175" value="Task group: rcu_sw control" style="points=[[0,0],[0.25,0],[0.5,0],[0.75,0],[1,0],[1,0.25],[1,0.5],[1,0.75],[1,1],[0.75,1],[0.5,1],[0.25,1],[0,1],[0,0.75],[0,0.5],[0,0.25]];outlineConnect=0;gradientColor=none;html=1;whiteSpace=wrap;fontSize=12;fontStyle=0;shape=mxgraph.aws4.group;grIcon=mxgraph.aws4.group_aws_cloud_alt;strokeColor=#232F3E;fillColor=none;verticalAlign=top;align=left;spacingLeft=30;fontColor=#232F3E;dashed=0;labelBackgroundColor=#ffffff;container=1;pointerEvents=0;collapsible=0;recursiveResize=0;" parent="1" vertex="1">
          <mxGeometry x="260" y="-1143.5" width="700" height="203.5" as="geometry" />
        </mxCell>
        <mxCell id="6uFFX85QrKdOCd5ph4Qv-5" value="Supervisory&amp;nbsp;&lt;div&gt;Control Task&lt;/div&gt;" style="points=[[0,0],[0.25,0],[0.5,0],[0.75,0],[1,0],[1,0.25],[1,0.5],[1,0.75],[1,1],[0.75,1],[0.5,1],[0.25,1],[0,1],[0,0.75],[0,0.5],[0,0.25]];outlineConnect=0;gradientColor=none;html=1;whiteSpace=wrap;fontSize=12;fontStyle=0;container=1;pointerEvents=0;collapsible=0;recursiveResize=0;shape=mxgraph.aws4.group;grIcon=mxgraph.aws4.group_iot_greengrass;strokeColor=#7AA116;fillColor=none;verticalAlign=top;align=left;spacingLeft=30;fontColor=#3F8624;dashed=0;" parent="UEzPUAAOIrF-is8g5C7q-175" vertex="1">
          <mxGeometry x="21" y="39.5" width="130" height="130" as="geometry" />
        </mxCell>
        <mxCell id="Bn-3QscrJTiT_IRlTA3r-4" style="edgeStyle=orthogonalEdgeStyle;rounded=0;orthogonalLoop=1;jettySize=auto;html=1;exitX=0;exitY=0.75;exitDx=0;exitDy=0;entryX=1;entryY=0.75;entryDx=0;entryDy=0;" parent="UEzPUAAOIrF-is8g5C7q-175" source="6uFFX85QrKdOCd5ph4Qv-6" target="6uFFX85QrKdOCd5ph4Qv-5" edge="1">
          <mxGeometry relative="1" as="geometry" />
        </mxCell>
        <mxCell id="6uFFX85QrKdOCd5ph4Qv-6" value="Dynamic control task" style="points=[[0,0],[0.25,0],[0.5,0],[0.75,0],[1,0],[1,0.25],[1,0.5],[1,0.75],[1,1],[0.75,1],[0.5,1],[0.25,1],[0,1],[0,0.75],[0,0.5],[0,0.25]];outlineConnect=0;gradientColor=none;html=1;whiteSpace=wrap;fontSize=12;fontStyle=0;container=1;pointerEvents=0;collapsible=0;recursiveResize=0;shape=mxgraph.aws4.group;grIcon=mxgraph.aws4.group_iot_greengrass;strokeColor=#7AA116;fillColor=none;verticalAlign=top;align=left;spacingLeft=30;fontColor=#3F8624;dashed=0;" parent="UEzPUAAOIrF-is8g5C7q-175" vertex="1">
          <mxGeometry x="430" y="36.75" width="130" height="130" as="geometry" />
        </mxCell>
        <mxCell id="IzoFUXeWL32RikOkkDxz-15" value="CO TN1 (eg)&lt;div&gt;&lt;font color=&quot;#ff6666&quot;&gt;EMERGENCY&lt;/font&gt;&lt;/div&gt;" style="text;strokeColor=none;align=center;fillColor=none;html=1;verticalAlign=middle;whiteSpace=wrap;rounded=0;" parent="UEzPUAAOIrF-is8g5C7q-175" vertex="1">
          <mxGeometry x="163.5" y="38.5" width="106.5" height="30" as="geometry" />
        </mxCell>
        <mxCell id="IzoFUXeWL32RikOkkDxz-27" value="CO TN2 (eg)&lt;div&gt;&lt;font color=&quot;#0066cc&quot;&gt;Safe Stop&lt;/font&gt;&lt;/div&gt;" style="text;strokeColor=none;align=center;fillColor=none;html=1;verticalAlign=middle;whiteSpace=wrap;rounded=0;rotation=0;" parent="UEzPUAAOIrF-is8g5C7q-175" vertex="1">
          <mxGeometry x="162.5" y="72.5" width="110" height="30" as="geometry" />
        </mxCell>
        <mxCell id="r9rRcQ8iRQdkx96xORRm-6" value="SC TN1 (eg)&lt;div&gt;&lt;font color=&quot;#ff6666&quot;&gt;EMERGENCY&lt;/font&gt;&lt;/div&gt;" style="text;strokeColor=none;align=center;fillColor=none;html=1;verticalAlign=middle;whiteSpace=wrap;rounded=0;" parent="UEzPUAAOIrF-is8g5C7q-175" vertex="1">
          <mxGeometry x="166" y="163.5" width="106.5" height="30" as="geometry" />
        </mxCell>
        <mxCell id="Bn-3QscrJTiT_IRlTA3r-5" value="DC TN1(mb)&amp;nbsp;&lt;div&gt;(Setpoint)&lt;/div&gt;" style="text;strokeColor=none;align=center;fillColor=none;html=1;verticalAlign=middle;whiteSpace=wrap;rounded=0;rotation=0;" parent="UEzPUAAOIrF-is8g5C7q-175" vertex="1">
          <mxGeometry x="324" y="102.5" width="140" height="30" as="geometry" />
        </mxCell>
        <mxCell id="6uFFX85QrKdOCd5ph4Qv-4" value="FreeRTOS&lt;div&gt;Control Task&lt;/div&gt;" style="points=[[0,0],[0.25,0],[0.5,0],[0.75,0],[1,0],[1,0.25],[1,0.5],[1,0.75],[1,1],[0.75,1],[0.5,1],[0.25,1],[0,1],[0,0.75],[0,0.5],[0,0.25]];outlineConnect=0;gradientColor=none;html=1;whiteSpace=wrap;fontSize=12;fontStyle=0;container=1;pointerEvents=0;collapsible=0;recursiveResize=0;shape=mxgraph.aws4.group;grIcon=mxgraph.aws4.group_iot_greengrass;strokeColor=#7AA116;fillColor=none;verticalAlign=top;align=left;spacingLeft=30;fontColor=#3F8624;dashed=0;" parent="1" vertex="1">
          <mxGeometry x="1270" y="-740" width="130" height="130" as="geometry" />
        </mxCell>
        <mxCell id="6uFFX85QrKdOCd5ph4Qv-21" value="&lt;div&gt;UARTUI Q1&lt;/div&gt;&lt;div&gt;(drive command)&lt;/div&gt;" style="text;strokeColor=none;align=center;fillColor=none;html=1;verticalAlign=middle;whiteSpace=wrap;rounded=0;rotation=-90;" parent="1" vertex="1">
          <mxGeometry x="34" y="-660" width="80" height="30" as="geometry" />
        </mxCell>
        <mxCell id="Bn-3QscrJTiT_IRlTA3r-3" style="edgeStyle=orthogonalEdgeStyle;rounded=0;orthogonalLoop=1;jettySize=auto;html=1;exitX=0;exitY=0.5;exitDx=0;exitDy=0;" parent="1" source="6uFFX85QrKdOCd5ph4Qv-16" target="6uFFX85QrKdOCd5ph4Qv-6" edge="1">
          <mxGeometry relative="1" as="geometry" />
        </mxCell>
        <mxCell id="6uFFX85QrKdOCd5ph4Qv-16" value="Mathematical Operations Task" style="points=[[0,0],[0.25,0],[0.5,0],[0.75,0],[1,0],[1,0.25],[1,0.5],[1,0.75],[1,1],[0.75,1],[0.5,1],[0.25,1],[0,1],[0,0.75],[0,0.5],[0,0.25]];outlineConnect=0;gradientColor=none;html=1;whiteSpace=wrap;fontSize=12;fontStyle=0;container=1;pointerEvents=0;collapsible=0;recursiveResize=0;shape=mxgraph.aws4.group;grIcon=mxgraph.aws4.group_aws_step_functions_workflow;strokeColor=#CD2264;fillColor=none;verticalAlign=top;align=left;spacingLeft=30;fontColor=#CD2264;dashed=0;" parent="1" vertex="1">
          <mxGeometry x="974" y="-1120" width="130" height="130" as="geometry" />
        </mxCell>
        <mxCell id="r9rRcQ8iRQdkx96xORRm-19" style="edgeStyle=orthogonalEdgeStyle;rounded=0;orthogonalLoop=1;jettySize=auto;html=1;exitX=0.75;exitY=1;exitDx=0;exitDy=0;entryX=1;entryY=0;entryDx=0;entryDy=0;" parent="1" source="Z3XYwV8bthwm2bylAlYH-2" edge="1">
          <mxGeometry relative="1" as="geometry">
            <mxPoint x="1009" y="-653.5" as="targetPoint" />
          </mxGeometry>
        </mxCell>
        <mxCell id="Z3XYwV8bthwm2bylAlYH-2" value="Error Handling Task" style="rounded=1;arcSize=10;dashed=1;strokeColor=#ff0000;fillColor=none;gradientColor=none;dashPattern=8 4;strokeWidth=2;" parent="1" vertex="1">
          <mxGeometry x="910" y="-920" width="150" height="150" as="geometry" />
        </mxCell>
        <mxCell id="6uFFX85QrKdOCd5ph4Qv-9" value="Database Task" style="points=[[0,0],[0.25,0],[0.5,0],[0.75,0],[1,0],[1,0.25],[1,0.5],[1,0.75],[1,1],[0.75,1],[0.5,1],[0.25,1],[0,1],[0,0.75],[0,0.5],[0,0.25]];outlineConnect=0;gradientColor=none;html=1;whiteSpace=wrap;fontSize=12;fontStyle=0;container=1;pointerEvents=0;collapsible=0;recursiveResize=0;shape=mxgraph.aws4.group;grIcon=mxgraph.aws4.group_corporate_data_center;strokeColor=#7D8998;fillColor=none;verticalAlign=top;align=left;spacingLeft=30;fontColor=#5A6C86;dashed=0;" parent="1" vertex="1">
          <mxGeometry x="1230" y="-930" width="130" height="130" as="geometry" />
        </mxCell>
        <mxCell id="Z3XYwV8bthwm2bylAlYH-7" value="BIT Task" style="outlineConnect=0;gradientColor=none;html=1;whiteSpace=wrap;fontSize=12;fontStyle=0;strokeColor=#FF9900;fillColor=none;verticalAlign=top;align=center;fontColor=#FF9900;dashed=0;spacingTop=3;" parent="1" vertex="1">
          <mxGeometry x="1200" y="-1110" width="130" height="130" as="geometry" />
        </mxCell>
        <mxCell id="Z3XYwV8bthwm2bylAlYH-20" value="Software Timers" style="points=[[0,0],[0.25,0],[0.5,0],[0.75,0],[1,0],[1,0.25],[1,0.5],[1,0.75],[1,1],[0.75,1],[0.5,1],[0.25,1],[0,1],[0,0.75],[0,0.5],[0,0.25]];outlineConnect=0;gradientColor=none;html=1;whiteSpace=wrap;fontSize=12;fontStyle=0;shape=mxgraph.aws4.group;grIcon=mxgraph.aws4.group_aws_cloud_alt;strokeColor=#232F3E;fillColor=none;verticalAlign=top;align=left;spacingLeft=30;fontColor=#232F3E;dashed=0;labelBackgroundColor=#ffffff;container=1;pointerEvents=0;collapsible=0;recursiveResize=0;" parent="1" vertex="1">
          <mxGeometry x="1390" y="-290" width="240" height="260" as="geometry" />
        </mxCell>
        <mxCell id="6uFFX85QrKdOCd5ph4Qv-11" value="Software Timer: Rate Profile 1" style="points=[[0,0],[0.25,0],[0.5,0],[0.75,0],[1,0],[1,0.25],[1,0.5],[1,0.75],[1,1],[0.75,1],[0.5,1],[0.25,1],[0,1],[0,0.75],[0,0.5],[0,0.25]];outlineConnect=0;gradientColor=none;html=1;whiteSpace=wrap;fontSize=12;fontStyle=0;container=1;pointerEvents=0;collapsible=0;recursiveResize=0;shape=mxgraph.aws4.group;grIcon=mxgraph.aws4.group_on_premise;strokeColor=#7D8998;fillColor=none;verticalAlign=top;align=left;spacingLeft=30;fontColor=#5A6C86;dashed=0;" parent="Z3XYwV8bthwm2bylAlYH-20" vertex="1">
          <mxGeometry x="10" y="40" width="130" height="80" as="geometry" />
        </mxCell>
        <mxCell id="Z3XYwV8bthwm2bylAlYH-21" value="CRC Task" style="points=[[0,0],[0.25,0],[0.5,0],[0.75,0],[1,0],[1,0.25],[1,0.5],[1,0.75],[1,1],[0.75,1],[0.5,1],[0.25,1],[0,1],[0,0.75],[0,0.5],[0,0.25]];outlineConnect=0;gradientColor=none;html=1;whiteSpace=wrap;fontSize=12;fontStyle=0;container=1;pointerEvents=0;collapsible=0;recursiveResize=0;shape=mxgraph.aws4.group;grIcon=mxgraph.aws4.group_aws_step_functions_workflow;strokeColor=#CD2264;fillColor=none;verticalAlign=top;align=left;spacingLeft=30;fontColor=#CD2264;dashed=0;" parent="1" vertex="1">
          <mxGeometry x="1460" y="-800" width="130" height="130" as="geometry" />
        </mxCell>
        <mxCell id="Z3XYwV8bthwm2bylAlYH-23" value="Debug Task" style="points=[[0,0],[0.25,0],[0.5,0],[0.75,0],[1,0],[1,0.25],[1,0.5],[1,0.75],[1,1],[0.75,1],[0.5,1],[0.25,1],[0,1],[0,0.75],[0,0.5],[0,0.25]];outlineConnect=0;gradientColor=none;html=1;whiteSpace=wrap;fontSize=12;fontStyle=0;container=1;pointerEvents=0;collapsible=0;recursiveResize=0;shape=mxgraph.aws4.group;grIcon=mxgraph.aws4.group_corporate_data_center;strokeColor=#7D8998;fillColor=none;verticalAlign=top;align=left;spacingLeft=30;fontColor=#5A6C86;dashed=0;" parent="1" vertex="1">
          <mxGeometry x="1460" y="-1130" width="130" height="130" as="geometry" />
        </mxCell>
        <mxCell id="Zyk3eGL-KPXLRvuC-kTH-12" value="CO TN3 (mb) (n_motor)" style="text;strokeColor=none;align=center;fillColor=none;html=1;verticalAlign=middle;whiteSpace=wrap;rounded=0;rotation=0;" parent="1" vertex="1">
          <mxGeometry x="380" y="-916" width="90" height="30" as="geometry" />
        </mxCell>
        <mxCell id="Zyk3eGL-KPXLRvuC-kTH-31" style="edgeStyle=orthogonalEdgeStyle;rounded=0;orthogonalLoop=1;jettySize=auto;html=1;exitX=0;exitY=0.75;exitDx=0;exitDy=0;entryX=0.75;entryY=0;entryDx=0;entryDy=0;" parent="1" source="6uFFX85QrKdOCd5ph4Qv-5" edge="1">
          <mxGeometry relative="1" as="geometry">
            <mxPoint x="162.5" y="-790" as="targetPoint" />
          </mxGeometry>
        </mxCell>
        <mxCell id="Zyk3eGL-KPXLRvuC-kTH-32" style="edgeStyle=orthogonalEdgeStyle;rounded=0;orthogonalLoop=1;jettySize=auto;html=1;exitX=1;exitY=0.5;exitDx=0;exitDy=0;entryX=-0.015;entryY=0.4;entryDx=0;entryDy=0;entryPerimeter=0;" parent="1" edge="1">
          <mxGeometry relative="1" as="geometry">
            <Array as="points">
              <mxPoint x="190" y="-750" />
              <mxPoint x="385" y="-750" />
              <mxPoint x="385" y="-768" />
            </Array>
            <mxPoint x="190" y="-770" as="sourcePoint" />
            <mxPoint x="478.0500000000002" y="-768" as="targetPoint" />
          </mxGeometry>
        </mxCell>
        <mxCell id="Zyk3eGL-KPXLRvuC-kTH-33" value="SC Q1 (KM command&lt;span style=&quot;background-color: initial;&quot;&gt;)&lt;/span&gt;" style="text;strokeColor=none;align=center;fillColor=none;html=1;verticalAlign=middle;whiteSpace=wrap;rounded=0;rotation=-90;" parent="1" vertex="1">
          <mxGeometry x="130" y="-860" width="90" height="30" as="geometry" />
        </mxCell>
        <mxCell id="Zyk3eGL-KPXLRvuC-kTH-34" value="SC Q1 (KM command&lt;span style=&quot;background-color: initial;&quot;&gt;)&lt;/span&gt;" style="text;strokeColor=none;align=center;fillColor=none;html=1;verticalAlign=middle;whiteSpace=wrap;rounded=0;rotation=0;" parent="1" vertex="1">
          <mxGeometry x="210" y="-780" width="90" height="30" as="geometry" />
        </mxCell>
        <mxCell id="Zyk3eGL-KPXLRvuC-kTH-35" style="edgeStyle=orthogonalEdgeStyle;rounded=0;orthogonalLoop=1;jettySize=auto;html=1;exitX=0.25;exitY=0;exitDx=0;exitDy=0;entryX=0.25;entryY=1;entryDx=0;entryDy=0;" parent="1" edge="1">
          <mxGeometry relative="1" as="geometry">
            <mxPoint x="92.5" y="-380" as="sourcePoint" />
            <mxPoint x="98.75" y="-720" as="targetPoint" />
          </mxGeometry>
        </mxCell>
        <mxCell id="Zyk3eGL-KPXLRvuC-kTH-36" style="edgeStyle=orthogonalEdgeStyle;rounded=0;orthogonalLoop=1;jettySize=auto;html=1;exitX=0.25;exitY=0;exitDx=0;exitDy=0;" parent="1" edge="1">
          <mxGeometry relative="1" as="geometry">
            <mxPoint x="280" y="-1070" as="targetPoint" />
            <Array as="points">
              <mxPoint x="80" y="-790" />
              <mxPoint x="80" y="-1070" />
            </Array>
            <mxPoint x="107.5" y="-790" as="sourcePoint" />
          </mxGeometry>
        </mxCell>
        <mxCell id="Zyk3eGL-KPXLRvuC-kTH-38" value="&lt;div&gt;TCPUI Q1&lt;/div&gt;&lt;div&gt;(drive command)&lt;/div&gt;" style="text;strokeColor=none;align=center;fillColor=none;html=1;verticalAlign=middle;whiteSpace=wrap;rounded=0;rotation=-90;" parent="1" vertex="1">
          <mxGeometry x="101" y="-670" width="80" height="30" as="geometry" />
        </mxCell>
        <mxCell id="Zyk3eGL-KPXLRvuC-kTH-39" value="&lt;div&gt;UARTUI Q1&lt;/div&gt;&lt;div&gt;(drive command)&lt;/div&gt;" style="text;strokeColor=none;align=center;fillColor=none;html=1;verticalAlign=middle;whiteSpace=wrap;rounded=0;rotation=-90;" parent="1" vertex="1">
          <mxGeometry x="17" y="-1030" width="80" height="30" as="geometry" />
        </mxCell>
        <mxCell id="Zyk3eGL-KPXLRvuC-kTH-40" style="edgeStyle=orthogonalEdgeStyle;rounded=0;orthogonalLoop=1;jettySize=auto;html=1;exitX=0.5;exitY=0;exitDx=0;exitDy=0;entryX=0;entryY=0.5;entryDx=0;entryDy=0;" parent="1" target="6uFFX85QrKdOCd5ph4Qv-5" edge="1">
          <mxGeometry relative="1" as="geometry">
            <mxPoint x="135" y="-790" as="sourcePoint" />
          </mxGeometry>
        </mxCell>
        <mxCell id="Zyk3eGL-KPXLRvuC-kTH-41" value="&lt;div&gt;TCPUI Q1&lt;/div&gt;&lt;div&gt;(drive command)&lt;/div&gt;" style="text;strokeColor=none;align=center;fillColor=none;html=1;verticalAlign=middle;whiteSpace=wrap;rounded=0;rotation=-90;" parent="1" vertex="1">
          <mxGeometry x="73" y="-1030" width="80" height="30" as="geometry" />
        </mxCell>
        <mxCell id="Zyk3eGL-KPXLRvuC-kTH-2" value="CAN TN3 (mb) (n_&lt;span style=&quot;background-color: initial;&quot;&gt;payload)&lt;/span&gt;" style="text;strokeColor=none;align=center;fillColor=none;html=1;verticalAlign=middle;whiteSpace=wrap;rounded=0;rotation=-90;" parent="1" vertex="1">
          <mxGeometry x="677" y="-900" width="90" height="30" as="geometry" />
        </mxCell>
        <mxCell id="XnOFw1Xpx_WXFT_SU9Ly-1" value="TN (eg)" style="text;strokeColor=none;align=center;fillColor=none;html=1;verticalAlign=middle;whiteSpace=wrap;rounded=0;" parent="1" vertex="1">
          <mxGeometry x="1120" y="-1160" width="60" height="30" as="geometry" />
        </mxCell>
        <mxCell id="XnOFw1Xpx_WXFT_SU9Ly-2" value="TN (bs)" style="text;strokeColor=none;align=center;fillColor=none;html=1;verticalAlign=middle;whiteSpace=wrap;rounded=0;" parent="1" vertex="1">
          <mxGeometry x="1130" y="-1120" width="60" height="30" as="geometry" />
        </mxCell>
        <mxCell id="XnOFw1Xpx_WXFT_SU9Ly-3" value="TN (cs)" style="text;strokeColor=none;align=center;fillColor=none;html=1;verticalAlign=middle;whiteSpace=wrap;rounded=0;" parent="1" vertex="1">
          <mxGeometry x="1130" y="-1080" width="60" height="30" as="geometry" />
        </mxCell>
        <mxCell id="XnOFw1Xpx_WXFT_SU9Ly-4" value="TN (mb)" style="text;strokeColor=none;align=center;fillColor=none;html=1;verticalAlign=middle;whiteSpace=wrap;rounded=0;" parent="1" vertex="1">
          <mxGeometry x="1130" y="-1040" width="60" height="30" as="geometry" />
        </mxCell>
        <mxCell id="XnOFw1Xpx_WXFT_SU9Ly-8" style="edgeStyle=orthogonalEdgeStyle;rounded=0;orthogonalLoop=1;jettySize=auto;html=1;exitX=0.25;exitY=1;exitDx=0;exitDy=0;entryX=0;entryY=0;entryDx=0;entryDy=0;" parent="1" source="6uFFX85QrKdOCd5ph4Qv-5" edge="1">
          <mxGeometry relative="1" as="geometry">
            <mxPoint x="320" y="-570" as="targetPoint" />
          </mxGeometry>
        </mxCell>
        <mxCell id="XnOFw1Xpx_WXFT_SU9Ly-9" value="SC EG1&amp;nbsp; (RCU mode&lt;span style=&quot;background-color: initial;&quot;&gt;)&lt;/span&gt;" style="text;strokeColor=none;align=center;fillColor=none;html=1;verticalAlign=middle;whiteSpace=wrap;rounded=0;rotation=-90;" parent="1" vertex="1">
          <mxGeometry x="260" y="-680" width="90" height="30" as="geometry" />
        </mxCell>
        <mxCell id="XnOFw1Xpx_WXFT_SU9Ly-10" value="SC EG2&amp;nbsp; (RCU status&lt;span style=&quot;background-color: initial;&quot;&gt;)&lt;/span&gt;" style="text;strokeColor=none;align=center;fillColor=none;html=1;verticalAlign=middle;whiteSpace=wrap;rounded=0;rotation=-90;" parent="1" vertex="1">
          <mxGeometry x="315" y="-683" width="90" height="30" as="geometry" />
        </mxCell>
        <mxCell id="XnOFw1Xpx_WXFT_SU9Ly-11" style="edgeStyle=orthogonalEdgeStyle;rounded=0;orthogonalLoop=1;jettySize=auto;html=1;exitX=0.5;exitY=1;exitDx=0;exitDy=0;entryX=0.5;entryY=0;entryDx=0;entryDy=0;" parent="1" source="6uFFX85QrKdOCd5ph4Qv-5" edge="1">
          <mxGeometry relative="1" as="geometry">
            <mxPoint x="375" y="-570" as="targetPoint" />
          </mxGeometry>
        </mxCell>
        <mxCell id="IzoFUXeWL32RikOkkDxz-1" style="edgeStyle=orthogonalEdgeStyle;rounded=0;orthogonalLoop=1;jettySize=auto;html=1;exitX=0;exitY=0.5;exitDx=0;exitDy=0;entryX=0.5;entryY=0;entryDx=0;entryDy=0;" parent="1" edge="1">
          <mxGeometry relative="1" as="geometry">
            <mxPoint x="320" y="-550" as="sourcePoint" />
            <mxPoint x="125" y="-380" as="targetPoint" />
          </mxGeometry>
        </mxCell>
        <mxCell id="IzoFUXeWL32RikOkkDxz-2" style="edgeStyle=orthogonalEdgeStyle;rounded=0;orthogonalLoop=1;jettySize=auto;html=1;exitX=0;exitY=0.5;exitDx=0;exitDy=0;entryX=0.25;entryY=0;entryDx=0;entryDy=0;" parent="1" edge="1">
          <mxGeometry relative="1" as="geometry">
            <mxPoint x="320" y="-550" as="sourcePoint" />
            <mxPoint x="252.5" y="-380" as="targetPoint" />
          </mxGeometry>
        </mxCell>
        <mxCell id="IzoFUXeWL32RikOkkDxz-3" value="SC EG1&amp;nbsp; (RCU mode&lt;span style=&quot;background-color: initial;&quot;&gt;)&lt;/span&gt;" style="text;strokeColor=none;align=center;fillColor=none;html=1;verticalAlign=middle;whiteSpace=wrap;rounded=0;rotation=-90;" parent="1" vertex="1">
          <mxGeometry x="63" y="-500" width="90" height="30" as="geometry" />
        </mxCell>
        <mxCell id="IzoFUXeWL32RikOkkDxz-4" value="SC EG2&amp;nbsp; (RCU status&lt;span style=&quot;background-color: initial;&quot;&gt;)&lt;/span&gt;" style="text;strokeColor=none;align=center;fillColor=none;html=1;verticalAlign=middle;whiteSpace=wrap;rounded=0;rotation=-90;" parent="1" vertex="1">
          <mxGeometry x="140" y="-500" width="90" height="30" as="geometry" />
        </mxCell>
        <mxCell id="IzoFUXeWL32RikOkkDxz-5" style="edgeStyle=orthogonalEdgeStyle;rounded=0;orthogonalLoop=1;jettySize=auto;html=1;exitX=0;exitY=0.75;exitDx=0;exitDy=0;entryX=1;entryY=0;entryDx=0;entryDy=0;" parent="1" edge="1">
          <mxGeometry relative="1" as="geometry">
            <mxPoint x="320" y="-540" as="sourcePoint" />
            <mxPoint x="190" y="-380" as="targetPoint" />
          </mxGeometry>
        </mxCell>
        <mxCell id="IzoFUXeWL32RikOkkDxz-6" style="edgeStyle=orthogonalEdgeStyle;rounded=0;orthogonalLoop=1;jettySize=auto;html=1;exitX=0;exitY=0.75;exitDx=0;exitDy=0;" parent="1" edge="1">
          <mxGeometry relative="1" as="geometry">
            <mxPoint x="320" y="-540" as="sourcePoint" />
            <mxPoint x="285" y="-380" as="targetPoint" />
          </mxGeometry>
        </mxCell>
        <mxCell id="IzoFUXeWL32RikOkkDxz-7" value="SC EG1&amp;nbsp; (RCU mode&lt;span style=&quot;background-color: initial;&quot;&gt;)&lt;/span&gt;" style="text;strokeColor=none;align=center;fillColor=none;html=1;verticalAlign=middle;whiteSpace=wrap;rounded=0;rotation=-90;" parent="1" vertex="1">
          <mxGeometry x="190" y="-490" width="90" height="30" as="geometry" />
        </mxCell>
        <mxCell id="IzoFUXeWL32RikOkkDxz-8" value="SC EG2&amp;nbsp; (RCU status&lt;span style=&quot;background-color: initial;&quot;&gt;)&lt;/span&gt;" style="text;strokeColor=none;align=center;fillColor=none;html=1;verticalAlign=middle;whiteSpace=wrap;rounded=0;rotation=-90;" parent="1" vertex="1">
          <mxGeometry x="260" y="-490" width="90" height="30" as="geometry" />
        </mxCell>
        <mxCell id="IzoFUXeWL32RikOkkDxz-13" value="CAN TN1 (eg)&lt;div&gt;&lt;font color=&quot;#ff6666&quot;&gt;EMERGENCY&lt;/font&gt;&lt;/div&gt;" style="text;strokeColor=none;align=center;fillColor=none;html=1;verticalAlign=middle;whiteSpace=wrap;rounded=0;rotation=-90;" parent="1" vertex="1">
          <mxGeometry x="530" y="-550" width="83" height="30" as="geometry" />
        </mxCell>
        <mxCell id="IzoFUXeWL32RikOkkDxz-17" value="UART UI TN2 (eg)&lt;div&gt;&lt;font color=&quot;#0066cc&quot;&gt;Safe Stop&lt;/font&gt;&lt;/div&gt;" style="text;strokeColor=none;align=center;fillColor=none;html=1;verticalAlign=middle;whiteSpace=wrap;rounded=0;rotation=-90;" parent="1" vertex="1">
          <mxGeometry x="-30" y="-480" width="110" height="30" as="geometry" />
        </mxCell>
        <mxCell id="IzoFUXeWL32RikOkkDxz-18" style="edgeStyle=orthogonalEdgeStyle;rounded=0;orthogonalLoop=1;jettySize=auto;html=1;exitX=0;exitY=0.5;exitDx=0;exitDy=0;entryX=0.25;entryY=0;entryDx=0;entryDy=0;" parent="1" target="6uFFX85QrKdOCd5ph4Qv-5" edge="1">
          <mxGeometry relative="1" as="geometry">
            <mxPoint x="60" y="-315" as="sourcePoint" />
          </mxGeometry>
        </mxCell>
        <mxCell id="IzoFUXeWL32RikOkkDxz-20" value="UART UI TN1 (eg)&lt;div&gt;&lt;font color=&quot;#ff6666&quot;&gt;EMERGENCY&lt;/font&gt;&lt;/div&gt;" style="text;strokeColor=none;align=center;fillColor=none;html=1;verticalAlign=middle;whiteSpace=wrap;rounded=0;rotation=-90;" parent="1" vertex="1">
          <mxGeometry x="-90" y="-480" width="106.5" height="30" as="geometry" />
        </mxCell>
        <mxCell id="IzoFUXeWL32RikOkkDxz-21" value="CAN TN2 (eg)&lt;div&gt;&lt;font color=&quot;#0066cc&quot;&gt;Safe Stop&lt;/font&gt;&lt;/div&gt;" style="text;strokeColor=none;align=center;fillColor=none;html=1;verticalAlign=middle;whiteSpace=wrap;rounded=0;rotation=-90;" parent="1" vertex="1">
          <mxGeometry x="557" y="-550" width="110" height="30" as="geometry" />
        </mxCell>
        <mxCell id="IzoFUXeWL32RikOkkDxz-26" style="edgeStyle=orthogonalEdgeStyle;rounded=0;orthogonalLoop=1;jettySize=auto;html=1;exitX=0;exitY=0;exitDx=0;exitDy=0;entryX=0;entryY=1;entryDx=0;entryDy=0;" parent="1" target="6uFFX85QrKdOCd5ph4Qv-5" edge="1">
          <mxGeometry relative="1" as="geometry">
            <mxPoint x="480" y="-796" as="sourcePoint" />
          </mxGeometry>
        </mxCell>
        <mxCell id="IzoFUXeWL32RikOkkDxz-28" value="TCPUI TN2 (eg)&lt;div&gt;&lt;font color=&quot;#0066cc&quot;&gt;Safe Stop&lt;/font&gt;&lt;/div&gt;" style="text;strokeColor=none;align=center;fillColor=none;html=1;verticalAlign=middle;whiteSpace=wrap;rounded=0;rotation=0;" parent="1" vertex="1">
          <mxGeometry x="440" y="-352" width="110" height="30" as="geometry" />
        </mxCell>
        <mxCell id="IzoFUXeWL32RikOkkDxz-29" value="TCPUI TN1 (eg)&lt;div&gt;&lt;font color=&quot;#ff6666&quot;&gt;EMERGENCY&lt;/font&gt;&lt;/div&gt;" style="text;strokeColor=none;align=center;fillColor=none;html=1;verticalAlign=middle;whiteSpace=wrap;rounded=0;rotation=0;" parent="1" vertex="1">
          <mxGeometry x="446.5" y="-404" width="106.5" height="30" as="geometry" />
        </mxCell>
        <mxCell id="IzoFUXeWL32RikOkkDxz-31" value="Supervisory Control Task" style="points=[[0,0],[0.25,0],[0.5,0],[0.75,0],[1,0],[1,0.25],[1,0.5],[1,0.75],[1,1],[0.75,1],[0.5,1],[0.25,1],[0,1],[0,0.75],[0,0.5],[0,0.25]];outlineConnect=0;gradientColor=none;html=1;whiteSpace=wrap;fontSize=12;fontStyle=0;container=1;pointerEvents=0;collapsible=0;recursiveResize=0;shape=mxgraph.aws4.group;grIcon=mxgraph.aws4.group_iot_greengrass;strokeColor=#7AA116;fillColor=none;verticalAlign=top;align=left;spacingLeft=30;fontColor=#3F8624;dashed=0;" parent="1" vertex="1">
          <mxGeometry x="560" y="-410" width="130" height="130" as="geometry" />
        </mxCell>
        <mxCell id="IzoFUXeWL32RikOkkDxz-34" style="edgeStyle=orthogonalEdgeStyle;rounded=0;orthogonalLoop=1;jettySize=auto;html=1;exitX=1;exitY=0.25;exitDx=0;exitDy=0;entryX=0.273;entryY=0.385;entryDx=0;entryDy=0;entryPerimeter=0;" parent="1" target="IzoFUXeWL32RikOkkDxz-32" edge="1">
          <mxGeometry relative="1" as="geometry">
            <mxPoint x="350" y="-347.5" as="sourcePoint" />
          </mxGeometry>
        </mxCell>
        <mxCell id="IzoFUXeWL32RikOkkDxz-35" style="edgeStyle=orthogonalEdgeStyle;rounded=0;orthogonalLoop=1;jettySize=auto;html=1;exitX=1;exitY=0.75;exitDx=0;exitDy=0;entryX=0.273;entryY=0.577;entryDx=0;entryDy=0;entryPerimeter=0;" parent="1" target="IzoFUXeWL32RikOkkDxz-32" edge="1">
          <mxGeometry relative="1" as="geometry">
            <mxPoint x="350" y="-282.5" as="sourcePoint" />
          </mxGeometry>
        </mxCell>
        <mxCell id="r9rRcQ8iRQdkx96xORRm-2" style="edgeStyle=orthogonalEdgeStyle;rounded=0;orthogonalLoop=1;jettySize=auto;html=1;exitX=0.25;exitY=1;exitDx=0;exitDy=0;entryX=0.485;entryY=0.242;entryDx=0;entryDy=0;entryPerimeter=0;" parent="1" target="IzoFUXeWL32RikOkkDxz-32" edge="1">
          <mxGeometry relative="1" as="geometry">
            <mxPoint x="672.5" y="-726" as="sourcePoint" />
          </mxGeometry>
        </mxCell>
        <mxCell id="r9rRcQ8iRQdkx96xORRm-3" style="edgeStyle=orthogonalEdgeStyle;rounded=0;orthogonalLoop=1;jettySize=auto;html=1;exitX=0;exitY=1;exitDx=0;exitDy=0;entryX=0.364;entryY=0.242;entryDx=0;entryDy=0;entryPerimeter=0;" parent="1" target="IzoFUXeWL32RikOkkDxz-32" edge="1">
          <mxGeometry relative="1" as="geometry">
            <Array as="points">
              <mxPoint x="640" y="-630" />
              <mxPoint x="590" y="-630" />
            </Array>
            <mxPoint x="640" y="-726" as="sourcePoint" />
          </mxGeometry>
        </mxCell>
        <mxCell id="r9rRcQ8iRQdkx96xORRm-4" style="edgeStyle=orthogonalEdgeStyle;rounded=0;orthogonalLoop=1;jettySize=auto;html=1;exitX=0.75;exitY=0;exitDx=0;exitDy=0;" parent="1" target="6uFFX85QrKdOCd5ph4Qv-6" edge="1">
          <mxGeometry relative="1" as="geometry">
            <mxPoint x="737.5" y="-796" as="sourcePoint" />
          </mxGeometry>
        </mxCell>
        <mxCell id="r9rRcQ8iRQdkx96xORRm-7" style="edgeStyle=orthogonalEdgeStyle;rounded=0;orthogonalLoop=1;jettySize=auto;html=1;exitX=1;exitY=0;exitDx=0;exitDy=0;entryX=1;entryY=0.25;entryDx=0;entryDy=0;" parent="1" target="6uFFX85QrKdOCd5ph4Qv-5" edge="1">
          <mxGeometry relative="1" as="geometry">
            <mxPoint x="610" y="-796" as="sourcePoint" />
          </mxGeometry>
        </mxCell>
        <mxCell id="r9rRcQ8iRQdkx96xORRm-8" style="edgeStyle=orthogonalEdgeStyle;rounded=0;orthogonalLoop=1;jettySize=auto;html=1;exitX=0.75;exitY=0;exitDx=0;exitDy=0;entryX=1;entryY=0.5;entryDx=0;entryDy=0;" parent="1" target="6uFFX85QrKdOCd5ph4Qv-5" edge="1">
          <mxGeometry relative="1" as="geometry">
            <mxPoint x="577.5" y="-796" as="sourcePoint" />
          </mxGeometry>
        </mxCell>
        <mxCell id="r9rRcQ8iRQdkx96xORRm-11" style="edgeStyle=orthogonalEdgeStyle;rounded=0;orthogonalLoop=1;jettySize=auto;html=1;exitX=1;exitY=1;exitDx=0;exitDy=0;entryX=0;entryY=0;entryDx=0;entryDy=0;" parent="1" source="6uFFX85QrKdOCd5ph4Qv-5" target="Z3XYwV8bthwm2bylAlYH-2" edge="1">
          <mxGeometry relative="1" as="geometry" />
        </mxCell>
        <mxCell id="r9rRcQ8iRQdkx96xORRm-15" value="SC EG1&amp;nbsp; (RCU mode&lt;span style=&quot;background-color: initial;&quot;&gt;)&lt;/span&gt;" style="text;strokeColor=none;align=center;fillColor=none;html=1;verticalAlign=middle;whiteSpace=wrap;rounded=0;rotation=-90;" parent="1" vertex="1">
          <mxGeometry x="866" y="-726.5" width="90" height="30" as="geometry" />
        </mxCell>
        <mxCell id="r9rRcQ8iRQdkx96xORRm-16" value="SC EG2&amp;nbsp; (RCU status&lt;span style=&quot;background-color: initial;&quot;&gt;)&lt;/span&gt;" style="text;strokeColor=none;align=center;fillColor=none;html=1;verticalAlign=middle;whiteSpace=wrap;rounded=0;rotation=-90;" parent="1" vertex="1">
          <mxGeometry x="919" y="-726.5" width="90" height="30" as="geometry" />
        </mxCell>
        <mxCell id="r9rRcQ8iRQdkx96xORRm-17" style="edgeStyle=orthogonalEdgeStyle;rounded=0;orthogonalLoop=1;jettySize=auto;html=1;exitX=0.25;exitY=0;exitDx=0;exitDy=0;entryX=0.113;entryY=0.993;entryDx=0;entryDy=0;entryPerimeter=0;" parent="1" target="Z3XYwV8bthwm2bylAlYH-2" edge="1">
          <mxGeometry relative="1" as="geometry">
            <mxPoint x="926.5" y="-653.5" as="sourcePoint" />
          </mxGeometry>
        </mxCell>
        <mxCell id="r9rRcQ8iRQdkx96xORRm-18" style="edgeStyle=orthogonalEdgeStyle;rounded=0;orthogonalLoop=1;jettySize=auto;html=1;exitX=0.75;exitY=0;exitDx=0;exitDy=0;entryX=0.5;entryY=1;entryDx=0;entryDy=0;" parent="1" target="Z3XYwV8bthwm2bylAlYH-2" edge="1">
          <mxGeometry relative="1" as="geometry">
            <mxPoint x="981.5" y="-653.5" as="sourcePoint" />
          </mxGeometry>
        </mxCell>
        <mxCell id="r9rRcQ8iRQdkx96xORRm-20" value="EH EG1&amp;nbsp; (RCU error commands&lt;span style=&quot;background-color: initial;&quot;&gt;)&lt;/span&gt;" style="text;strokeColor=none;align=center;fillColor=none;html=1;verticalAlign=middle;whiteSpace=wrap;rounded=0;rotation=-90;" parent="1" vertex="1">
          <mxGeometry x="976.5" y="-722" width="125" height="30" as="geometry" />
        </mxCell>
        <mxCell id="r9rRcQ8iRQdkx96xORRm-22" style="edgeStyle=orthogonalEdgeStyle;rounded=0;orthogonalLoop=1;jettySize=auto;html=1;exitX=0.25;exitY=0;exitDx=0;exitDy=0;entryX=0.667;entryY=0.242;entryDx=0;entryDy=0;entryPerimeter=0;" parent="1" target="IzoFUXeWL32RikOkkDxz-32" edge="1">
          <mxGeometry relative="1" as="geometry">
            <Array as="points">
              <mxPoint x="918" y="-520" />
              <mxPoint x="690" y="-520" />
            </Array>
            <mxPoint x="917.75" y="-613.5" as="sourcePoint" />
          </mxGeometry>
        </mxCell>
        <mxCell id="r9rRcQ8iRQdkx96xORRm-23" value="EH EG1&amp;nbsp; (RCU error commands&lt;span style=&quot;background-color: initial;&quot;&gt;)&lt;/span&gt;" style="text;strokeColor=none;align=center;fillColor=none;html=1;verticalAlign=middle;whiteSpace=wrap;rounded=0;rotation=0;" parent="1" vertex="1">
          <mxGeometry x="731" y="-550" width="125" height="30" as="geometry" />
        </mxCell>
        <mxCell id="r9rRcQ8iRQdkx96xORRm-28" style="edgeStyle=orthogonalEdgeStyle;rounded=0;orthogonalLoop=1;jettySize=auto;html=1;exitX=1;exitY=0.25;exitDx=0;exitDy=0;entryX=0.53;entryY=0.117;entryDx=0;entryDy=0;entryPerimeter=0;" parent="1" source="IzoFUXeWL32RikOkkDxz-31" edge="1">
          <mxGeometry relative="1" as="geometry">
            <mxPoint x="949.9499999999998" y="-609.99" as="targetPoint" />
          </mxGeometry>
        </mxCell>
        <mxCell id="r9rRcQ8iRQdkx96xORRm-29" value="SC Q2 (RCU data)" style="text;strokeColor=none;align=center;fillColor=none;html=1;verticalAlign=middle;whiteSpace=wrap;rounded=0;rotation=0;" parent="1" vertex="1">
          <mxGeometry x="750" y="-404" width="125" height="30" as="geometry" />
        </mxCell>
        <mxCell id="r9rRcQ8iRQdkx96xORRm-30" value="SC Q2 (RCU data)" style="text;strokeColor=none;align=center;fillColor=none;html=1;verticalAlign=middle;whiteSpace=wrap;rounded=0;rotation=-90;" parent="1" vertex="1">
          <mxGeometry x="965.5" y="-579" width="125" height="30" as="geometry" />
        </mxCell>
        <mxCell id="r9rRcQ8iRQdkx96xORRm-32" style="edgeStyle=orthogonalEdgeStyle;rounded=0;orthogonalLoop=1;jettySize=auto;html=1;exitX=1;exitY=0;exitDx=0;exitDy=0;" parent="1" edge="1">
          <mxGeometry relative="1" as="geometry">
            <mxPoint x="1004" y="-613.5" as="sourcePoint" />
            <mxPoint x="1215.3000000000002" y="-585" as="targetPoint" />
          </mxGeometry>
        </mxCell>
        <mxCell id="r9rRcQ8iRQdkx96xORRm-35" style="edgeStyle=orthogonalEdgeStyle;rounded=0;orthogonalLoop=1;jettySize=auto;html=1;exitX=1;exitY=0.25;exitDx=0;exitDy=0;entryX=0;entryY=0;entryDx=0;entryDy=0;" parent="1" edge="1">
          <mxGeometry relative="1" as="geometry">
            <mxPoint x="1009" y="-643.5" as="sourcePoint" />
            <mxPoint x="1230" y="-515" as="targetPoint" />
          </mxGeometry>
        </mxCell>
        <mxCell id="r9rRcQ8iRQdkx96xORRm-36" value="SC Q3 (RCU error data)" style="text;strokeColor=none;align=center;fillColor=none;html=1;verticalAlign=middle;whiteSpace=wrap;rounded=0;rotation=0;" parent="1" vertex="1">
          <mxGeometry x="1050" y="-667" width="140" height="30" as="geometry" />
        </mxCell>
        <mxCell id="r9rRcQ8iRQdkx96xORRm-37" style="edgeStyle=orthogonalEdgeStyle;rounded=0;orthogonalLoop=1;jettySize=auto;html=1;exitX=1;exitY=0.5;exitDx=0;exitDy=0;entryX=0.878;entryY=0.117;entryDx=0;entryDy=0;entryPerimeter=0;" parent="1" source="IzoFUXeWL32RikOkkDxz-31" edge="1">
          <mxGeometry relative="1" as="geometry">
            <mxPoint x="989.9699999999998" y="-609.99" as="targetPoint" />
          </mxGeometry>
        </mxCell>
        <mxCell id="r9rRcQ8iRQdkx96xORRm-38" value="SC Q3 (RCU error data)" style="text;strokeColor=none;align=center;fillColor=none;html=1;verticalAlign=middle;whiteSpace=wrap;rounded=0;rotation=0;" parent="1" vertex="1">
          <mxGeometry x="757" y="-370" width="140" height="30" as="geometry" />
        </mxCell>
        <mxCell id="r9rRcQ8iRQdkx96xORRm-43" style="edgeStyle=orthogonalEdgeStyle;rounded=0;orthogonalLoop=1;jettySize=auto;html=1;exitX=0;exitY=0;exitDx=0;exitDy=0;entryX=1.003;entryY=0.455;entryDx=0;entryDy=0;entryPerimeter=0;" parent="1" edge="1">
          <mxGeometry relative="1" as="geometry">
            <Array as="points">
              <mxPoint x="880" y="-654" />
              <mxPoint x="880" y="-764" />
            </Array>
            <mxPoint x="899" y="-653.5" as="sourcePoint" />
            <mxPoint x="770.3899999999999" y="-764.1500000000001" as="targetPoint" />
          </mxGeometry>
        </mxCell>
        <mxCell id="r9rRcQ8iRQdkx96xORRm-46" style="edgeStyle=orthogonalEdgeStyle;rounded=0;orthogonalLoop=1;jettySize=auto;html=1;exitX=0;exitY=0;exitDx=0;exitDy=0;entryX=0.881;entryY=1.056;entryDx=0;entryDy=0;entryPerimeter=0;" parent="1" edge="1">
          <mxGeometry relative="1" as="geometry">
            <Array as="points">
              <mxPoint x="220" y="-590" />
              <mxPoint x="171" y="-590" />
            </Array>
            <mxPoint x="220" y="-380" as="sourcePoint" />
            <mxPoint x="171.31500000000005" y="-718.3199999999999" as="targetPoint" />
          </mxGeometry>
        </mxCell>
        <mxCell id="r9rRcQ8iRQdkx96xORRm-47" value="" style="group" parent="1" vertex="1" connectable="0">
          <mxGeometry x="630" y="-130" width="120" height="70" as="geometry" />
        </mxCell>
        <mxCell id="r9rRcQ8iRQdkx96xORRm-48" value="" style="shape=image;verticalLabelPosition=bottom;labelBackgroundColor=default;verticalAlign=top;aspect=fixed;imageAspect=0;image=data:image/png,iVBORw0KGgoAAAANSUhEUgAAAG4AAAAoCAYAAAAfWs+KAAAAAXNSR0IArs4c6QAAAARnQU1BAACxjwv8YQUAAAAJcEhZcwAADsMAAA7DAcdvqGQAAB0YSURBVHhe7Zt5lF1Hfec/VXWXt/Wm7pZarc2SLdmy5AU5tsFmcTA2BGxjOIMhE+LEBLLAEDDhMAnMMCRMCJlJQmCSeAwkrCYJgTgmwSYQDNjgnXjVim1J1q5eX7/tblW/+aPuawkLBiN85gzn8Dv9Tt+l6lbd+v72+l0lIsLP6KeO9NMv/Ix+OuhnwP2U0s+A+ykl9WPZOBEcDnEK53IWaDOXN0lcghZQKIzSaKVAaYzSBMqglCLQBoVBiwEEBWgMGo3vqVCAAn8u/kyh8H/+vyeFlMcaUFJ2VP6en2v/vkId16//TwFagZTj+8tqsZ/v1H+wlLPr02Kj8qycY7mU/bkpFEpksTUIiEKp49/l5OgZAycIiMM5oVu0ONg+xL1HHuDh1g6axQLK+VZ+uoIDRCm0VmgloAxatF8P5TAqKEH1wAIYExCgMVpjtEFr3ydQikAUgdJobUAblPKQa2UIVIDWBoNCK4XBoDEoFRCaEKVCjNaEQKA8YFoFKBWXzxHPRMqgtWe+QGm/8Eqh0WgVoDGAIkChUYgStNLlWJ5JNBqlPMMtMqUyVExEbCKMCvw4PyFyzwg4EVmUtv3JAfYffZw1w+sI4phM5TgRnCtwTnDisGIpJMc6S4E/F2exIlhxWFdQSE5BgRXr+ziLxZGLxYorn9O/L4g4HBYnFuschQgW/zxx4q9Lsdi2wLeRso3DoZwfS8RSiKXQBU5ZEIWIKvWAKoEUcEKAQildagCDKuHTSqEEtFFgDFp7/QFeEEUrQgIiQkIVMxwPs7o2wRkDp7O8tpLQhGh18pbqRwDnxdyKwzhFS3p8cudnWGlGuGLDlQQSlypMEBGkr1nw+kJwKAWuvOTbKqRcIk/Oy+hiu8UHoBGUeFXklFucj/9JqbGcl2/xDOZbeaAcFkE8sDicsxR9BkM8c+EZw4pDSqbrM45zgkiBxeGc8/9LhnIlM1tK5sR5BsZSiB/ZYUGsZzonVHXMkB5lWW0F64dPoaFrKH1ykvcjgUPAYlFWc0/7Yf7q4b/i3Vvexun1jWjRoBziVxdrLQcOHGDvU08xOjrK2rXrCIIAbSApmlgoVWdf1RlvG9BoJShCFN4WsgihQ7ClHFBarWPTQ3nV3IfzGHlm0CjPROUc+00EL5mCQpR/gilZx9soL32qf6FknP6172fSRVYqGRMUDilNBuIQAYdl6/wubnn8G7x83Uu4cPhsTHhyUvcjgPODOnEkYvng1r+gYw/zh+f8N2JVx8uOUIjFFo4P//mH+cd/vBljNC992eUsLLS44oorOeeFZ/Mvj32EFofRLkKU9naDAK0hICKWKmP11Zw6dg7L62uIVR1QTCd72Tl9P0oJOoiIwgahjgkIMDpEa0NgDBEh2oQEKqCqhqgFA2jlGUDEL6MlJZcccTkiOSAoFaB1TECFoLTDHoDjfigQB6Vkg0LEM5wHzHlzUjKm7+QBUcprAMS3/feF7/KOx/6GC/Rm/vt5b6ISx8fW+seg/ztwUk5LHAfyg1x3xzv4T2f9R141/krEeAPsxN//yle+wjve8Q4++Ecf5MaP3shrr7mGz950E//5Xe9k7cUTfP6x99MMZjHO4bS3Jw4BArSrEVkItaOiGvzckpdz8ZpXEug69+y/lW8e/Vu6dDHOoIIUUYKIQYlG4Qic91CNMlSkxgVLr+L81S8jlCqC0KXN3vmdPHz4Lg529pJJD0hRAoaI2MSsGFzH2ZMvZGVtPVVVLaXe9OULsDhRZKS0ZZ75bJqF3gy5TSlcShDEVM0gg/EYQ+EwNV0lVBGKwGsJAVHCfVP38JZdf017Z8Y9v/SXDFcGn77qz4hOAO77NIBHDuccn5+6mc/svIW/vviPmJDlSKDRCpxAXuRcffXVtFstrrvuDfzd3/0dZ597Lq1mk3e/913c0/wSj7a/REoFTYe6m2RQj4NkpNJiVh3BqZzYhVhVsDzezBWrf5MVI6v46vabeLDzZdIwQxU1ctVFuRQlgiamIMAphRKNxtIwA7xs+XWcu/QSUpuxq3kf39j1D8yaQ2RBGyPGO1q6AAXKeQ8xsiGKmFOHX8glq1/DRGUFRoWlNS5Ii4S93W3cv/829rS2kqgOVqco1cEpQEK0qxAVDWq55sIVr+K5q64mjitQhkBOWe488g1++3t/w+GHEnb82mdYUm0cv/zPmMz73ve+9z39oueOUnXj6EiLv971t2wcXsvLRi9DBT76YdHuwLZt27j99tu59bZbmZubI45C3vhrv8aajZPcd+hW5ngKQVOXBheNvJpXbf4tnjt5GZuWXcBU8yCtYh8WjdOKITPA+qFzGakspxYMsqpxJusr5zMRrWEhmSMtEoQIxDBhVrEhPptlwUrG1CSroo1sGLoAMZZvHfoCtx+8hRl9CGtyjEQM6lFGK6sYDVZTD5ZhVUBhe2S6INcwm22j3WuyrHEK9WAIoyyppHz70N9z2xOf5mi+g1xlWO2AgMgOEkgDLTFWaXLjAT1j6fOYrJ+BMcFioOlwbJvfxlemv8vAbJU3POdKqkF0/NI/YzoBuL60OQQngnKwfWEH39p7J68740pWm1WIwTsRSi3q9gsuvADnHGvWrOG1r7mG66+/nk1nbeTxuQfZuvBNutLDYBg1E1y06iqWVCbRLkRUyONz2zlSPEWhNIFUWFc9k7PGn08tGGGoupSJ+mmsrK+nURth+9T9tJkGnaAk4OIVV3H52l/lrGUv5KyJ53P62LmYMOCBI//G/TO30WYedE5kY9ZVzuKiiVdxyepruHDics4aez7jwRqavX20sh5OKZyCud5hBsIhltfWo8Wws/nvfGXv35CYFqIgcJqJyiRr6+ewpn42q+pnsDxezfJ4OWPxBA0ZZ+PY8xitLPfJiFKPWQoeaT7MV6cfZKKzjNed9dKTBu5El6YUob6JLSTnO7MPMFQbYWNtM2L6zr13vwtr+c5d3+GGG25gamqKyy67jLGxMQ4dPEghCbvnHqVTLKBsBeUsIjkz6QF2TT/EozN38p3DX2B38giZEgIXsFyv4MzRixiIlpVOgedVUY6Z3j7miym/DC6kogaZrJ9GqCoYAjQRQsD+9g52zH6TpJjHiCWQhNXhaVy6+pd4zrIXM2yWEVCjrkfYPHYhL1z1eqpSRVOgxVAoy86Zh2jlTawOuHff1+iaLloUDk1BzJljP88r176JK9b+Ci9d+3peftqvc+X6t3LlurfyslOuY7K2HqN0mYHxnrATS88mFLkwUh3kJCMB+IHAlYhp5X2mI8U0O+Z2c8Gyc2lQR8qsAHjbd8899/CRj3yEffv28dnPfpYoirjxxo9y3/33s5DOMpPvB5cQiOC0MOem+eb+v+e2/X/JrQc/zp2Hv0w3n2WkGOWcwYt48ZpfZP2SCzCE3gaVY1kp2DO/lVQt+GlKxGhlOcPhWBkS+NRWr2izZ/5RptJDWOUzHZVimOdMXMKqgdMxGJRyPusCBISsGDydgEr57gJamO0dIXMJCstC9ygCiHJ+NjrlcPsJDvX2kiuLEUOgfKDdCJawYng99ahRzosSPHCS0ykS8kIYjhoEzypwJYnzAfX2+d2kRcpZoxvRyqdz+hPJsowvfvGLTE5Ocv7557NmzRqqlSpp2uXc55zNnuZOjqZ7cSiczrEqoCOOI24fh92TzNsD9FQTjeKcZVu47JRrWT98EbEeADxoogDRJKrLvvknQCyKHHBM1NYQB4PeLVcAjlY2zcHuE/R0RqF9GDyklrNx6RYCYp+OUt5j9GreHVP7pUoTJTgpvNerHJMjp6IJsNqVnqxlZ+s+vrT7Y3x+55/ytb03sWv+AXp2vowNyxBgMfXgKXcFU7ZLL7OMxAM/UdrrhwKHErrS4ZG5bUxUR5iIly9yPyIopciyjKmpo9xyyy184AMfoNls8pa3vIXzzjuPzVs2ciR5nE6+QK4B1WPCreSKNb/KBSOvYMQtJRRFbDVOCd87vIeaHiFUIeITn2XQCiC0sqNMpQcWk88aw0RtFXFQR/U9YBydfI6Z3gFEFWgRlBhGayupBkvKPCmeJRQo5eVOJKdwiY9LBZQooqACOkCjedEpr2Yl66kUMYVxFCokFcfRfB/bunfx7ekvcPP3/heffux/cNfULbTsDJThRDkgAJnL2Ss9moVlNBoqxz85OqGnj9vACuzvHmRf9wnOHt3MEjNyTCWhcc6hjebSSy9laGiI+fl5QPHLv3It73//+2nbaaZ7uxEsohVxEXH+2Et4wdJX8Qtrr2PL5EtRUscpUCplwR2hwywCPjlbJtD9Ohfsnd1FQhONRbmImhlhpLKCkNADIQonjm7eJZEEJZrQagKJiasjCKGXIC8OZeZEAY4jyeOkuotTJfyiGKlOElNBiWE8XM3rNl/P85ZcyQTjVFWE0RmoFkhIrgtm9SF2uPu4dd+nuH3PPzCXzfi0GQ7KnGlmU3p5F0kLBmu1Y4JwEnQCcErAKaGQgu8t7MU5xYaBdQTGp6f6HNRqtfjzD3+Ye++7j0996lN8+85vc8+99/Kud76TIA44vPAUU+3doAocENpxNq98HoEEVKTOiFpBBS8tiJCrhFbRPOYdwaKqKVTO7pnt2KCLMxlOK8YrKxkJx/G5/X4fhU8vZ6VDkKNYoEhScF6SKBNkHkChIws8sO9fsSZB2QhQVFzMxtHzGArrKJVjlGI0XMXPr7uWX9r0Pq5Y9WYuqF3NqmAzVVOnUH680BksbR6e+RpPth7Eknvlq/z8UpeR2gQSy2C18RMlmU/o6VWF0LIttrafZKK6jInKUr+vtdhGmJ6eZvu2bTz++OPs3r2bZmuBwwcP0ut2yUmYyvaSuA5KQowEjMVrGQwnUIBWmqquEamwNPpgTc5COn28ZikXuKBjF9ifPOmziWLQIoxVl9GIhhd5SZSg0FTDBjUzgBZBlMbpgiOdfUxle7AUZVpRwDl6do6Hj97JroUHy4AeUDnj0QpW1jYQBZFXpcqhlaZCjWXROp6z9MX8whlv5Or17+S5S19FXQZAfJhgXECiO0wn+7FSoHE4UViEpOiR2h7kMBjVF32Fk6ETgKOUukPdIxxo72fDyGqGwgEQjSs1TZ7nPPzIwzz40EN897vf5b3vfS9vv/563vOed7PQajKfHmV36zF6pqDQQmgDNq88HyOhzzIAgQrROsJifMyoLa3ezHGz8FwqCPubu1hwR8ApEENElSXxSuLQe7nH5M0wEi1nsrKeQDS5CslUgyN6N9966mYeX/guU+lTTKV72dN6iLsO/xN3HPw8WdADCdAqZ1gNcc7YC5morkFJyGz3MEd7+8hIsMrnKo0oIolZHp3KxcsvZZhxPw8lHmTRBCpClyoZ5V2VxKWkRQbOUI+qz244IEAqOTs7e0jJOb1xKiExAtxz3z3ccMMNdLpdJidXcO211/LWt76Vyy+/nI0bN7JmzVqWjC7BFpa6XcLKaDMrwlNZqU/ltCVb/MIrKTdYa0QyRFRUiJ0hciGthal+Pr2vy3Di2DPzGI4uKHAa6tEQI/EkRkVegqFUjTAUL+WM0eczFKxG+gkr3WNr6y5ue+oT/NPuG7llz418+amPc9eRL9F0h8rxNDUZY/PIS9g0/gIqQQOnCu7f98/c+sTH+Oqev+WB6a/zePsh9nef4FDvCZ7qPcIDR77Kgpsr01oBYIikyng8iUH7TSvxiiS1OWmRgwRU4vgnEbgTc5XOOqaLGf7iyU8TY3jLutfTCIaw1vK61/0ieVHwwQ9+kJtvvplLLrmETZs2Ya0lLzKUaJaOj5PaHgv5LE4XKLEgwlhlDQEGNAiKhWye/Z3ttPIpiqJDWqRMmFM4c/JFi96WiJCTcOv2j/Fk+iC5czjJWVM7nUvWvJ7l9XXegVG6LC7wWfp20eSR2bt54NCtTGVP0tMFCiGQAiUGJcHitkt/l3o4mOD8pS/jrKWXMBQuBYSu6vDx+9/FQb2dUBtiM0hdxoilglE5GY5Z5kiKOQKryY1gXI1Ng+dz+epfYbwyidUaIxorBXdOfYt3bf8ojz/a4t9e/Wect3wDSvsdjB+XTgDOFhlbu7v4860f4zUrL+fyFZcBmr1P7WPLli2cdtppXHzxxdx99928+c1v5uyzzqZWr1GrVZicmEQEsiwnCAO0MYs7xX6F/VBaaUQoYx6HUwLOlts8gd8K6Xt+ztGTJimF92bpEoqippcQ6Kp/iUXgBMEzSiopc9kBHjt6LzuntzOfHyaVOXDW20MFka4wHi/j1KGL2bTsRYyGSwi135nOsRzs7eVzj76XeXUUVSaz/asIgRNAY7XCuIyIHCOjrBnYwsWrrmJ1YwNaRejSxbIu52tH/5Xf3fEJkl2Gm1/5x2xaesqzB1ySd/jiwVu5++C9vO2sN7Kuvg5EsXvvfl5y6aXMzMyQZykmCPyOs/Wq7ed+bgu3/9vt3HHHHbzx199ErVZjYHCIkdERli1dxtj4GKNj44wMDTE4NMTgwAADjQaVWpVKpUo1ioniiCAMicKQKAg98GiMFpRWKC8cZZ2KZwpK4EDKcKW0jQJKWQAKclLXZCGbI5EERBHrCsPRKBXT8FKIAWVKlatwWDr5HI8c/TpPzm1n1s6Q2HkK10XIyv01TYCmYkYYjSc4c+R5bBi/kLoZRCtBlK9OoQwFvnT4Fv7Ljs8yuH+Uz7z8D9gwttLX0JwEnQBcM5vjA4/8GUvrw/zWhjdRUVXPWU7Ys2cPN33uc3zyU5/keRc+l4HBAbqdLlmacs0113DVVVfxiU98gps+dxNZlpNmKUmWkaYpeV6Q5Rk2zymKAusc1trFJLWIEIYhcaVCvVploN5gaGiQkSUjjI+NMzY6RmNggIHBARqNBvV6gziOCcOAKIqIwpA4CgmjiDAIiOKYKI4Jgogo9PeDwGCMxgQGbcqCJKVRSlBafBlQWbwkzteciCooVEFCRma7JFmHNG9jXYo2jkpUZyAaJdIDhFTQ4ncDVJmu87GiolO0+PzBf+APtn2B0+ZO4aOXv4e1o5MnHYSfANwjCzt478P/k7dteB0vGH8RBlWWsIETx/Zdu7j961/nta95LeNLx8uA3C+8Uoo8z+l2uyRJQrfXZW6+ydzsLPNzc8zNz9Nqteh2O3Q6HZIkxdqCoigoCkuWpSRpSpam9HoJnW6HTq9D0u2RJglpkpFmGVmeUThfB+KcTzEZBVEUE8dVKnFMrVFjZGQJwyNLGB4eZnigQX2gTq1WpVKtUokrxGFIEAQE2hBGAXFcJY5iKpUKURxTq9aoN+pUKhUqcYUoDgmDkDDyO+8oX1WmdRksKe9B+lKMsqINBygWsgU+uf8m/njrP3NRcjZ/8pLfYfXIGFoFxy//M6YTgLvt4B38455/4Q+3/DajsY+7vN/mDX8/JDAlZy4Chwdu0TfnWH1hGTwt2q3jMwayeN+HGUmakKUZ3W6XVqvNQmuBZrNJp9Oh1+mSpAm9JCErpbawFlvkZHlG0kvodru022W/+SbN5gLtdpsk6dHr9UizlKIo/MDOq3nnHGEYEoYhURhRrVWp1WrUBwZZMjpCrVqlXq1Rq1WJ4wpxFGHC0JttbQgCQyWOqFSq1Gp1Nm/axHlbzqNWqyDi1fVcOs8Nez/Bh7b+K1frF/D7P/8WJgeWoPSzJHFf3ncn356/i7dv+mXqquFrFtEo5xdcE5QFNr5SarGWsF/ouUjiC3Sg9Ez6KH3fwbFTddxBWZ/Rf5wHt3RujmMOUSXLOKEoCvI891KbJHR7PTodL9m9bkKWp2RpRl54VQ1eSxRFQbfbPQZ4c4Gp6SmOHDnC1PQ0nU6bdrtFt90lzTJs4au2PJXOilIYYzzwUcRv/sZv8Pa3v50lI8OLieyj6TQfeuJGbtz6Ta4beAW/9/w3MlYfevaqvO6d3s5r7n4/m5dOsNIoxohp6Jg4qjMULWEoGmEobNCIa9SjKrWwTi2sEasKgQoJdFiWAfmyVO3T+yUy/tePr7wr4SfuRPwylHHeMcj9UT8W8k5Hf7ZPf+mnn/vn+k5+PI7nE6UQ57y9LQryosAWBWma0ksS0jShKCxFnmMLS2ELX4aIL0cs8mJRI8zPN5mdmeHQoUO8+MUv5uUvfwW1WnURuAPJAd73vb/k04/cze8uey1vv/haRiqNZw+46aTD9Xd/iM899c/o8QgdRigdoHSM0nlZ2QsKR9XBKIYhFRKpgAECRqgyoKvUgwqNaICheJDheAkDcYNGNMBwZYARU6Ma1qiYGqEOCcpi0kAqSJk01pSVzx5LcOC0gHaALfN/wSJYx+/Ge5XdX5A+o/RB821E+ixzrBz8+zXGjyaRfj2peFsrgrXW280gWHyec469vSf5vZ0f4e8f/nf+5NQ38esXXkMj8pXUJ0MnAOdSxz47y6d2fJ3P77yDA71DiO0huUWUQ4ICCRKcBgkrOAMuANEhzjjE5H49tfGLrGy5MAYkwFjFkIIRIgZVxJAKqOuAuqnQ0IMMxVUacZWhcJDhaJDheJDBaIB6VKceNIhNlVjVqeiYUClC0X73W/min36ooKS0vv2NXwfgC5wEL3ZK96W+f8G37WsEWBTNfot+KLp471iCu5To0gdYfIAA4niis5N3bv8Qtzy4nf997tt4/ZarqASB3yU/CToROOtVQYElcQk92yFxCZ08oZX1mC+6tLstWu0FZnodZpI2M0mLqWyWuSKhaXs4m2Jd4cvKBXLJyFVBblxZ9u3ItSJXltxYRGvv/xhXvmm5MaqEmtIMokEbahjqSlPXITUTUNOGQV1jIBgkjhrUoxr1qEE1qjMU1BkKalSDmKqJqVOloiMCZYiJiYgw2mB06FW88t6lQfmYUYUoVZ6XtnRRQqUPuCrhklKWj5Nr3wXKuuptC1v5nUf/jG88spdPPvfdvPrsS6nowMemJ0EnACdivXNwHHsdayCLSWLPl96G+G8FLFYsmSvIXEFSZCR5j27eYT5vs9Dr0EzbtJIOnaTHfJYwZTvMFym5K7BFSiZdMklJnSV3qd8GwZJJQUZBB0VXWTCFl+b+HI31wPvgCTRUtTCoAqo6oEZIVYVUTEysY+Igoh7E1E2FalAlDmIGTZVRU6UWVqkHVWq6RqQjqiYmUjGBCol1TKRDIh0R6oBIx4TaEOoQo/rfD3iJ7wfyqizhf2DuYX77rj+lszvnxpe+h4s2PIdAPJOcDJ0AnOeQPlf1by2yz9Po+EE9/30/1J4T+0/y9sB5SXN+z8+6HGv9xx5J3qPrMrp5Si/t0Mt7dIqEdtall/WYLTJmbEbqErKiQ15kZEVO4lLahW/bsymJTem4lCYFbSxC4cGl9Fi1K8FXoAPQEGqhoYRQR1R0RKyFwECsIyITEipDbGLioEIURMQ6oqqrDOmQQVNhyETUTYW6rlJRVUITUdExVV3DqoBvHtrBx+64mf+w9AW8+/I3MjE86qPjkxS5HwDcD6anx18/io7ZiWPAlej5K4tu/fEWxXt//rJbPPZf2JQqXByZyymsV8W5LUiLjJ5L6BUetCRP6OYJ80XKQpGS2oS06JEUCd20R7vo0S46LORd2nmPZt6lnWd0bM68y0iwoDJQeSnFperW/YqEUrUHEBlNqKCiA39sFIExGB0QEhLmVaQJzb0LnFlby3+99A2ct2ojYeAD7x/XIerTMwbu2aAfNVT/JY6160ts/57/+fvl10H9lqWW7Eu1qP7XM5S21v8K53DWUkhBZgtysaQ2p1t06RYJbZvQKRK6WddLfN5lIWnTzDs0kxbzaZvZtEez6LKQJ0zlOYmzQAGqAJ2DFr//lFhoCw03xLVnXs4bzr+KTaOriYKygk09PfZ95vT/FLgfn44B56kPXv9e/xrlJo1PCCzelx/Wp88MPsTz+URfsuE1Qunm+885ysSPw4mlwJKJpWdzejahU/RoF106vRZJ1qOVdmj22kxnbRLnGKuN8NyVmzln+FQaQRXKL3Z/HO31g+j/c+B+Rj+M/g93hOzkzo/tngAAAABJRU5ErkJggg==;" parent="r9rRcQ8iRQdkx96xORRm-47" vertex="1">
          <mxGeometry x="10" width="110" height="40" as="geometry" />
        </mxCell>
        <mxCell id="r9rRcQ8iRQdkx96xORRm-49" value="FreeRTOS kernel" style="text;strokeColor=none;align=center;fillColor=none;html=1;verticalAlign=middle;whiteSpace=wrap;rounded=0;" parent="r9rRcQ8iRQdkx96xORRm-47" vertex="1">
          <mxGeometry y="40" width="115" height="30" as="geometry" />
        </mxCell>
        <mxCell id="r9rRcQ8iRQdkx96xORRm-54" style="edgeStyle=orthogonalEdgeStyle;rounded=0;orthogonalLoop=1;jettySize=auto;html=1;exitX=1;exitY=0;exitDx=0;exitDy=0;entryX=1;entryY=1;entryDx=0;entryDy=0;" parent="1" edge="1">
          <mxGeometry relative="1" as="geometry">
            <Array as="points">
              <mxPoint x="1231" y="-360" />
              <mxPoint x="860" y="-360" />
            </Array>
            <mxPoint x="1230" y="-383" as="sourcePoint" />
            <mxPoint x="860" y="-620" as="targetPoint" />
          </mxGeometry>
        </mxCell>
        <mxCell id="r9rRcQ8iRQdkx96xORRm-59" style="edgeStyle=orthogonalEdgeStyle;rounded=0;orthogonalLoop=1;jettySize=auto;html=1;exitX=1;exitY=0.75;exitDx=0;exitDy=0;entryX=0;entryY=1;entryDx=0;entryDy=0;" parent="1" source="r9rRcQ8iRQdkx96xORRm-56" edge="1">
          <mxGeometry relative="1" as="geometry">
            <mxPoint x="60" y="-250" as="targetPoint" />
            <Array as="points">
              <mxPoint x="1040" y="-418" />
              <mxPoint x="1040" y="-230" />
              <mxPoint x="60" y="-230" />
            </Array>
          </mxGeometry>
        </mxCell>
        <mxCell id="r9rRcQ8iRQdkx96xORRm-56" value="DL TN1(eg) (RCU data)" style="text;strokeColor=none;align=center;fillColor=none;html=1;verticalAlign=middle;whiteSpace=wrap;rounded=0;rotation=0;" parent="1" vertex="1">
          <mxGeometry x="910" y="-441" width="160.5" height="30" as="geometry" />
        </mxCell>
        <mxCell id="r9rRcQ8iRQdkx96xORRm-58" style="edgeStyle=orthogonalEdgeStyle;rounded=0;orthogonalLoop=1;jettySize=auto;html=1;exitX=1;exitY=0.75;exitDx=0;exitDy=0;entryX=0.834;entryY=1.055;entryDx=0;entryDy=0;entryPerimeter=0;" parent="1" source="r9rRcQ8iRQdkx96xORRm-56" edge="1">
          <mxGeometry relative="1" as="geometry">
            <Array as="points">
              <mxPoint x="1071" y="-420" />
              <mxPoint x="838" y="-420" />
            </Array>
            <mxPoint x="838.4200000000001" y="-616.7" as="targetPoint" />
          </mxGeometry>
        </mxCell>
        <mxCell id="Bn-3QscrJTiT_IRlTA3r-1" style="edgeStyle=orthogonalEdgeStyle;rounded=0;orthogonalLoop=1;jettySize=auto;html=1;exitX=1;exitY=0.25;exitDx=0;exitDy=0;entryX=0;entryY=0.25;entryDx=0;entryDy=0;" parent="1" source="6uFFX85QrKdOCd5ph4Qv-6" target="6uFFX85QrKdOCd5ph4Qv-16" edge="1">
          <mxGeometry relative="1" as="geometry" />
        </mxCell>
      </root>
    </mxGraphModel>
  </diagram>
</mxfile>
